# xmcd
#
# Track frame offsets:
#	150
#	11430
#	24090
#	35664
#	47754
#	57434
#	70818
#	84780
#	97155
#	110341
#	122391
#	134383
#
# Disc length: 1921 seconds
#
# Revision: 0
# Processed by: cddbd v1.4PL0 Copyright (c) Steve Scherf et al.
# Submitted via: dBpowerAMP V4.0
#
DISCID=92077f0c
DTITLE=José Alfredo Jiménez - Mis Canciones Con Banda
DYEAR=2002
DGENRE=Ballad
TTITLE0=Canta, Canta, Canta
TTITLE1=Amor Sin Medida
TTITLE2=Cuatro Caminos
TTITLE3=El Perro Negro
TTITLE4=La Que Se Fue
TTITLE5=Yo Ella
TTITLE6=Marcando El Paso
TTITLE7=Tu Y Las Nubes
TTITLE8=La Sota De Copas
TTITLE9=El Vencido
TTITLE10=Pa´todo El Año
TTITLE11=Que Se Me Acabe La Vida
EXTD=
EXTT0=
EXTT1=
EXTT2=
EXTT3=
EXTT4=
EXTT5=
EXTT6=
EXTT7=
EXTT8=
EXTT9=
EXTT10=
EXTT11=
PLAYORDER=
